<svg id="Layer_1" xmlns="http://www.w3.org/2000/svg" width="69.9" height="28.4" viewBox="0 0 69.9 28.4"><style>.st0{fill:#131414}</style><path class="st0" d="M43.4 7.6v1.9h10.1c-.2-.7-.3-1.1-.6-1.9m13.2 1.9V7.6h-9.5L56 9.5m-1.9 1.9h-5s.5 1.5.6 1.9h5c.1-.1-.5-1.6-.6-1.9m5.7 1.8l.6-1.8h-5l-.6 1.8M51 17h7.5l.6-1.9h-8.8c.3.7.4 1.1.7 1.9m-7.6 1.9h5.7v1.9h-5.7zm17 0h5.7v1.9h-5.7zm-17-3.8h5.7V17h-5.7zm17 0h5.7V17h-5.7zm-17-3.7h5.7v1.9h-5.7zm17 0h5.7v1.9h-5.7zM39.7 22.7h9.4v1.9h-9.4zm0 3.8h9.4v1.9h-9.4zm-20.8-7.6h5.7v1.9h-5.7zm0-11.3h5.7v1.9h-5.7zM3.8 18.9h5.7v1.9H3.8zm0-3.8h5.7V17H3.8zm0-3.7h5.7v1.9H3.8zm0-3.8h5.7v1.9H3.8zM0 22.7h13.2v1.9H0zm0 3.8h13.2v1.9H0zM0 0h13.2v1.9H0zm0 3.8h13.2v1.9H0zM39.7 0v1.9H51c-.3-.8-.4-1.2-.6-1.9M39.7 3.8v1.9h12.6c-.3-.9-.3-1-.6-1.9M69.9 0H59.2l-.7 1.9h11.4m0 3.8V3.8h-12l-.6 1.9m3.1 17h9.4v1.9h-9.4zm0 3.8h9.4v1.9h-9.4zm-5.6 1.9l.6-1.9h-1.3c.1.4.7 1.9.7 1.9m-1.3-3.8H56l.6-1.9h-3.8c.3.9.5 1.3.7 1.9m-1.3-3.8h5l.6-1.9h-6.3c.4 1 .4 1 .7 1.9m-17-5.7H18.9V17h17.9c-.5-.7-1-1.3-1.6-1.9m-5 5.7h7.5c0-.7-.1-1.3-.2-1.9h-7.3m-15.1 5.7h21.6c.3-.6.6-1.2.8-1.9H15.1m0 5.7h15.1c1.9 0 3.7-.7 5-1.9H15.1m3.8-13.3h16.3c.6-.5 1.1-1.2 1.5-1.9H18.9m11.3-1.8h7.3c.2-.6.2-1.2.2-1.9h-7.5M15.1 0v1.9h20.1C33.9.7 32.1 0 30.2 0M15.1 5.7h22.4c-.2-.7-.4-1.3-.8-1.9H15.1"/></svg>