<svg id="Layer_1" xmlns="http://www.w3.org/2000/svg" viewBox="0 0 160 160"><style>.st0{fill:#c6c6c5}</style><circle class="st0" cx="80" cy="80" r="80"/><path d="M26.2 55.4h10.6c4.9 0 7.3 2.2 7.3 6 0 4.2-2.9 5.3-3.7 5.6v.1c1.3.2 3.3 1.2 3.3 4.7 0 2.6.4 4.9 1.2 5.8h-4.2c-.6-1-.6-2.2-.6-3.3 0-4.1-.8-5.9-4.4-5.9H30v9.1h-3.9V55.4zM30 65.5h6.4c2.5 0 3.8-1.2 3.8-3.5 0-2.9-1.8-3.4-3.8-3.4H30v6.9zm19.3 5c0 2.5 1.4 4.7 4.3 4.7 2.1 0 3.3-.9 3.9-2.7h3.3C60.1 76 57 78 53.5 78c-5.1 0-7.8-3.5-7.8-8.4 0-4.6 3-8.5 7.8-8.5 5.1 0 8.2 4.6 7.6 9.4H49.3zm8.3-2.3c-.2-2.2-1.6-4.2-4-4.2s-4.1 1.9-4.2 4.2h8.2zm6-6.7h3.3v2.2h.1c1-1.9 2.9-2.6 5-2.6 5.1 0 7.5 3.8 7.5 8.5 0 4.3-2.2 8.4-6.9 8.4-2 0-4.3-.7-5.4-2.5h-.1v8h-3.5v-22zm7.9 2.4c-3 0-4.5 2.2-4.5 5.7 0 3.2 1.6 5.6 4.5 5.6 3.2 0 4.4-2.9 4.4-5.6 0-2.9-1.5-5.7-4.4-5.7zm10.4-8.5h3.5v22.1h-3.5V55.4zM102.1 74c0 .9.2 1.2.8 1.2h.4c.2 0 .3 0 .5-.1v2.4c-.5.2-1.6.4-2.2.4-1.5 0-2.4-.5-2.7-2-1.4 1.4-3.7 2-5.5 2-2.9 0-5.5-1.6-5.5-4.7 0-4 3.2-4.7 6.2-5 2.6-.5 4.8-.2 4.8-2.3 0-1.9-1.9-2.2-3.3-2.2-2 0-3.4.8-3.5 2.5h-3.5c.2-4.1 3.7-5.3 7.3-5.3 3.1 0 6.4 1.3 6.4 4.7V74zm-3.6-4.5c-1.1.7-2.8.7-4.3 1-1.5.2-2.9.8-2.9 2.7 0 1.6 2 2 3.3 2 1.5 0 4-.8 4-3v-2.7zm18.1-2.6c-.3-2-1.7-3-3.7-3-1.8 0-4.4 1-4.4 5.8 0 2.7 1.2 5.5 4.2 5.5 2.1 0 3.5-1.3 3.8-3.7h3.5c-.7 4.2-3.2 6.4-7.3 6.4-5 0-7.8-3.6-7.8-8.3 0-4.8 2.6-8.6 7.9-8.6 3.7 0 6.9 1.9 7.2 5.8h-3.4zm8.8 3.6c0 2.5 1.4 4.7 4.3 4.7 2.1 0 3.3-.9 3.9-2.7h3.3c-.7 3.5-3.8 5.5-7.3 5.5-5.1 0-7.8-3.5-7.8-8.4 0-4.6 3-8.5 7.8-8.5 5.1 0 8.2 4.6 7.6 9.4h-11.8zm8.2-2.3c-.2-2.2-1.6-4.2-4-4.2s-4.1 1.9-4.2 4.2h8.2zM57.1 98.7h3.3v2.2h.1c1.1-1.6 2.4-2.7 4.9-2.7 2 0 3.8.8 4.5 2.7 1.2-1.6 2.7-2.7 5-2.7 3.4 0 5.4 1.5 5.4 5.4v11.1h-3.5v-9.4c0-2.6-.2-4.3-2.9-4.3-2.4 0-3.4 1.6-3.4 4.3v9.4H67v-10.3c0-2.2-.7-3.4-2.8-3.4-1.8 0-3.5 1.5-3.5 4.2v9.5h-3.5v-16zm29.1 9c0 2.5 1.4 4.7 4.3 4.7 2.1 0 3.3-.9 3.9-2.7h3.3c-.7 3.5-3.8 5.5-7.3 5.5-5.1 0-7.8-3.5-7.8-8.4 0-4.6 3-8.5 7.8-8.5 5.1 0 8.2 4.6 7.6 9.4H86.2zm8.3-2.3c-.2-2.2-1.6-4.2-4-4.2-2.5 0-4.1 1.9-4.2 4.2h8.2zm6.3 5.5h4.2v3.9h-4.2v-3.9zm.2-18.3h3.9V99l-1 9.6H102l-1-9.6v-6.4z"/></svg>