<?xml version="1.0" encoding="utf-8"?>
<!-- Generator: Adobe Illustrator 19.2.1, SVG Export Plug-In . SVG Version: 6.00 Build 0)  -->
<svg version="1.1" id="Layer_1" xmlns="http://www.w3.org/2000/svg" xmlns:xlink="http://www.w3.org/1999/xlink" x="0px" y="0px"
	 viewBox="0 0 256.6 229.2" style="enable-background:new 0 0 256.6 229.2;" xml:space="preserve">
<style type="text/css">
	.st0{fill:#562f72;}
	.st1{fill:#562f72;}
</style>
<g>
	<path class="st0" d="M208.1,37.7c-0.4,11.1-2.9,20.4-4.7,29.6c-0.7,3.4,0,4.6,3.3,5.6c12.4,3.9,24.6,8.6,35,16.6
		c2.9,2.2,5.6,4.8,8,7.5c9.8,11.6,9.1,25.6-1.8,36.8c-10.9,11.2-25,17-39.5,21.5c-4.8,1.5-5.4,3.2-4.7,8c1.6,10.6,3,21.4,3,32.2
		c0,6.3-1.8,12.9-4.2,18.8c-4.6,11.3-16.8,16.8-28.8,14.1c-16.4-3.7-29.1-13.5-41.2-24.4c-3.2-2.8-4.8-3.1-8.1-0.1
		c-12,10.9-24.8,20.7-41.2,24.5c-12.9,3-24.8-3.2-29.9-15.6c-4.9-12-4.6-24.4-2.8-36.9c0.7-4.6,1.4-9.2,2.7-13.7
		c1.1-3.7,0.3-5.2-3.5-6.3c-12.5-3.8-24.7-8.4-34.9-16.8c-4.1-3.3-7.9-7.3-10.6-11.7c-6.7-10.9-5.1-21.7,3.6-31.1
		c10.9-11.8,25.2-17.7,39.9-22.7c6.5-2.2,6.5-2.1,5.1-8.8c-3.3-15.6-5.6-31.2,0-46.7C57.9,3.8,69.6-2.6,84.3,0.9
		c13.2,3.1,24.1,10.4,34.2,19c10,8.5,9.8,8.5,19.8,0c11.1-9.5,23.1-17.4,38.1-19.6c10.8-1.6,21.1,4.5,26,14.1
		C206.4,22.5,208.4,29.9,208.1,37.7z M81.5,112.2c-0.6,1.2-0.8,3.3-0.1,4.4c6.7,12,13.7,23.9,20.5,35.9c1.8,3.2,4.3,4.2,7.8,4.2
		c12.6-0.1,25.2-0.1,37.8,0c3.6,0,5.9-1.3,7.7-4.4c6.5-11.4,13.2-22.7,19.5-34.2c1-1.9,1-5.3-0.1-7.2c-6.4-11.7-12.3-23.7-19.9-34.6
		c-1.4-2-1.7-2.4-3.1-3.8c-6.8-0.8-16.3-1.1-23.2-1.1c-6.2,0-16.4,0.9-22.8,1.7 M198.5,39.8c0.1-5.8-0.9-11.6-2.3-16.2
		c-3.3-11-12-17.1-24.8-12.9C158,15.2,147.3,24,137.4,33.7c-0.8,0.7-0.7,3.4,0,4.4c6,7.8,12.2,15.4,18.5,22.9
		c1.1,1.3,3.1,2.5,4.8,2.8c9.5,1.7,19,3.1,28.5,4.7c3,0.5,4.7-0.1,5.2-3.4C195.7,56.4,198.4,47.9,198.5,39.8z M8.6,115
		c0.7,4.1,3.5,7.8,6.1,10.9c10.1,11.7,24.2,16.6,38.2,21.4c3.1,1,4.3-0.5,5.4-3.4c3.3-9.1,7-18,10.3-27c0.5-1.3,0.7-2.9,0.2-4.1
		c-3.5-9.5-7.3-18.9-10.8-28.4c-1-2.6-2.3-3.4-4.9-2.6c-12.9,4.1-25.5,8.8-35.7,18.1C13.2,103.7,7.4,108.2,8.6,115z M135.6,193.7
		c10.2,9.9,20.7,19.1,34.2,23.9c15.1,5.4,24.5-0.5,27.3-16.3c2.1-12.1-0.1-23.8-2.2-35.6c-0.8-4.8-3-5.7-7.6-4.8
		c-8.3,1.6-16.7,2.5-25.1,3.9c-2,0.3-4.4,1.2-5.6,2.6C149.5,175.8,142.8,184.5,135.6,193.7z M121.1,35.2
		c-10.4-9.8-20.9-19.3-34.6-24c-14.7-5.1-24,0.6-26.7,16c-2.3,13.1-0.1,25.8,2.7,38.6c0.7,3.4,2.9,2.9,5.4,2.5
		c8.5-1.4,17.1-2.5,25.6-4.1c2.6-0.5,5.7-1.5,7.3-3.3C107.6,52.8,114,44.3,121.1,35.2z M121.1,193.8c-7.2-9.2-14-18-21-26.6
		c-1.1-1.3-3.4-2.1-5.2-2.4c-7.7-1.3-15.5-1.9-23.2-3.4c-10.3-2-8.6-1.3-10.3,7.3c-2.6,13.1-4.6,26.3,0.2,39.4
		c3.3,9,10.6,13.2,19.7,11.1C97.6,215.4,109.4,204.7,121.1,193.8z M247.5,115.3c0.2-5.3-2.2-8.4-4.7-11.4
		c-10.4-12.4-25.1-17.6-40-22.1c-1-0.3-3.3,1.3-3.8,2.5c-3.9,9.4-7.5,18.8-11,28.3c-0.4,1.1-0.5,2.6-0.1,3.7
		c3.6,9.6,7.3,19.3,11.2,28.8c0.5,1.1,2.9,2.5,4,2.2c14.2-4.4,28.3-9.2,38.6-20.7C244.3,123.4,247.3,120.1,247.5,115.3z M65.5,150.7
		c8.8,1.5,16.8,2.9,24.8,4.3c0.2-0.5,0.4-1.1,0.5-1.6c-5-8.7-10.1-17.4-15.1-26.1c-0.5,0.1-1,0.1-1.5,0.2
		C71.5,134.8,68.8,142,65.5,150.7z M91.7,73.7c-8,1.4-17.2,3.1-25.9,4.6c3.2,8.6,5.9,15.9,8.7,23.2c0.5,0,1,0,1.5,0 M165,155
		c7.1-1,12.7-1.7,18.3-2.7c7.7-1.3,7.8-1.7,5.2-8.9c-1.4-3.7-2.7-7.5-4.2-11.2c-0.7-1.7-1.6-3.3-2.9-5.8
		C175.8,136.2,170.9,144.8,165,155z M181,101.7c0.5,0,1,0,1.5,0.1c2.5-6.9,5-13.8,7.3-20.8c0.3-0.8-0.9-2.8-1.6-3
		c-7.2-1.5-14.4-2.6-21.7-3.9c-0.2,0.5-0.4,0.9-0.7,1.4C170.9,84.2,176,92.9,181,101.7z M113.5,166.6c-0.3,0.4-0.6,0.8-0.9,1.2
		c3.8,4.7,7.6,9.4,11.5,14.1c4,4.8,4.3,4.7,8.5-0.2c2.6-3.1,5.2-6,7.7-9.1c1.3-1.7,2.4-3.6,4-5.9
		C133.3,166.6,123.4,166.6,113.5,166.6z M111.8,62c11.7,0,21.7,0,33,0c-5.9-7-10.9-13-16.5-19.7C122.7,49,117.7,55,111.8,62z"/>
	<path class="st1" d="M128.6,136.6c-13,0.1-22.6-9.4-22.6-22.1c0-12.4,9.7-22.1,22.1-22.2c12.9,0,22.7,9.6,22.7,22.1
		C150.8,126.9,141.1,136.6,128.6,136.6z"/>
</g>
</svg>
