<svg id="Layer_1" xmlns="http://www.w3.org/2000/svg" viewBox="0 0 256.6 229.2"><style>.st0,.st1{fill:#562f72}</style><path class="st0" d="M208.1 37.7c-.4 11.1-2.9 20.4-4.7 29.6-.7 3.4 0 4.6 3.3 5.6 12.4 3.9 24.6 8.6 35 16.6 2.9 2.2 5.6 4.8 8 7.5 9.8 11.6 9.1 25.6-1.8 36.8-10.9 11.2-25 17-39.5 21.5-4.8 1.5-5.4 3.2-4.7 8 1.6 10.6 3 21.4 3 32.2 0 6.3-1.8 12.9-4.2 18.8-4.6 11.3-16.8 16.8-28.8 14.1-16.4-3.7-29.1-13.5-41.2-24.4-3.2-2.8-4.8-3.1-8.1-.1-12 10.9-24.8 20.7-41.2 24.5-12.9 3-24.8-3.2-29.9-15.6-4.9-12-4.6-24.4-2.8-36.9.7-4.6 1.4-9.2 2.7-13.7 1.1-3.7.3-5.2-3.5-6.3-12.5-3.8-24.7-8.4-34.9-16.8-4.1-3.3-7.9-7.3-10.6-11.7-6.7-10.9-5.1-21.7 3.6-31.1C18.7 84.5 33 78.6 47.7 73.6c6.5-2.2 6.5-2.1 5.1-8.8-3.3-15.6-5.6-31.2 0-46.7C57.9 3.8 69.6-2.6 84.3.9c13.2 3.1 24.1 10.4 34.2 19 10 8.5 9.8 8.5 19.8 0 11.1-9.5 23.1-17.4 38.1-19.6 10.8-1.6 21.1 4.5 26 14.1 4 8.1 6 15.5 5.7 23.3zM81.5 112.2c-.6 1.2-.8 3.3-.1 4.4 6.7 12 13.7 23.9 20.5 35.9 1.8 3.2 4.3 4.2 7.8 4.2 12.6-.1 25.2-.1 37.8 0 3.6 0 5.9-1.3 7.7-4.4 6.5-11.4 13.2-22.7 19.5-34.2 1-1.9 1-5.3-.1-7.2-6.4-11.7-12.3-23.7-19.9-34.6-1.4-2-1.7-2.4-3.1-3.8-6.8-.8-16.3-1.1-23.2-1.1-6.2 0-16.4.9-22.8 1.7m92.9-33.3c.1-5.8-.9-11.6-2.3-16.2-3.3-11-12-17.1-24.8-12.9-13.4 4.5-24.1 13.3-34 23-.8.7-.7 3.4 0 4.4 6 7.8 12.2 15.4 18.5 22.9 1.1 1.3 3.1 2.5 4.8 2.8 9.5 1.7 19 3.1 28.5 4.7 3 .5 4.7-.1 5.2-3.4 1.3-8.7 4-17.2 4.1-25.3zM8.6 115c.7 4.1 3.5 7.8 6.1 10.9 10.1 11.7 24.2 16.6 38.2 21.4 3.1 1 4.3-.5 5.4-3.4 3.3-9.1 7-18 10.3-27 .5-1.3.7-2.9.2-4.1-3.5-9.5-7.3-18.9-10.8-28.4-1-2.6-2.3-3.4-4.9-2.6-12.9 4.1-25.5 8.8-35.7 18.1-4.2 3.8-10 8.3-8.8 15.1zm127 78.7c10.2 9.9 20.7 19.1 34.2 23.9 15.1 5.4 24.5-.5 27.3-16.3 2.1-12.1-.1-23.8-2.2-35.6-.8-4.8-3-5.7-7.6-4.8-8.3 1.6-16.7 2.5-25.1 3.9-2 .3-4.4 1.2-5.6 2.6-7.1 8.4-13.8 17.1-21 26.3zM121.1 35.2c-10.4-9.8-20.9-19.3-34.6-24-14.7-5.1-24 .6-26.7 16-2.3 13.1-.1 25.8 2.7 38.6.7 3.4 2.9 2.9 5.4 2.5 8.5-1.4 17.1-2.5 25.6-4.1 2.6-.5 5.7-1.5 7.3-3.3 6.8-8.1 13.2-16.6 20.3-25.7zm0 158.6c-7.2-9.2-14-18-21-26.6-1.1-1.3-3.4-2.1-5.2-2.4-7.7-1.3-15.5-1.9-23.2-3.4-10.3-2-8.6-1.3-10.3 7.3-2.6 13.1-4.6 26.3.2 39.4 3.3 9 10.6 13.2 19.7 11.1 16.3-3.8 28.1-14.5 39.8-25.4zm126.4-78.5c.2-5.3-2.2-8.4-4.7-11.4-10.4-12.4-25.1-17.6-40-22.1-1-.3-3.3 1.3-3.8 2.5-3.9 9.4-7.5 18.8-11 28.3-.4 1.1-.5 2.6-.1 3.7 3.6 9.6 7.3 19.3 11.2 28.8.5 1.1 2.9 2.5 4 2.2 14.2-4.4 28.3-9.2 38.6-20.7 2.6-3.2 5.6-6.5 5.8-11.3zm-182 35.4c8.8 1.5 16.8 2.9 24.8 4.3.2-.5.4-1.1.5-1.6-5-8.7-10.1-17.4-15.1-26.1-.5.1-1 .1-1.5.2-2.7 7.3-5.4 14.5-8.7 23.2zm26.2-77c-8 1.4-17.2 3.1-25.9 4.6 3.2 8.6 5.9 15.9 8.7 23.2H76m89 53.5c7.1-1 12.7-1.7 18.3-2.7 7.7-1.3 7.8-1.7 5.2-8.9-1.4-3.7-2.7-7.5-4.2-11.2-.7-1.7-1.6-3.3-2.9-5.8-5.6 9.8-10.5 18.4-16.4 28.6zm16-53.3c.5 0 1 0 1.5.1 2.5-6.9 5-13.8 7.3-20.8.3-.8-.9-2.8-1.6-3-7.2-1.5-14.4-2.6-21.7-3.9-.2.5-.4.9-.7 1.4 5.1 8.7 10.2 17.4 15.2 26.2zm-67.5 64.9l-.9 1.2c3.8 4.7 7.6 9.4 11.5 14.1 4 4.8 4.3 4.7 8.5-.2 2.6-3.1 5.2-6 7.7-9.1 1.3-1.7 2.4-3.6 4-5.9-11-.1-20.9-.1-30.8-.1zM111.8 62h33c-5.9-7-10.9-13-16.5-19.7C122.7 49 117.7 55 111.8 62z"/><path class="st1" d="M128.6 136.6c-13 .1-22.6-9.4-22.6-22.1 0-12.4 9.7-22.1 22.1-22.2 12.9 0 22.7 9.6 22.7 22.1 0 12.5-9.7 22.2-22.2 22.2z"/></svg>